<svg width="64" height="57" viewBox="0 0 64 57" fill="none" xmlns="http://www.w3.org/2000/svg">
<g clip-path="url(#clip0_14_45)">
<path d="M0 49.5324C0 53.5738 3.69475 56.8494 8.25225 56.8494H55.7475C60.3058 56.8494 64 53.5734 64 49.5324V7.41967C64 3.378 60.3052 0.102417 55.7477 0.102417H8.2525C3.69425 0.102417 0 3.37845 0 7.41945V49.5321V49.5324Z" fill="#563D7C"/>
<path d="M26.5395 25.2036V17.1675H34.5172C35.2772 17.1675 36.0097 17.2236 36.7152 17.336C37.4207 17.4481 38.045 17.6485 38.5877 17.9374C39.1302 18.2262 39.5645 18.6272 39.8902 19.1404C40.2157 19.6537 40.3787 20.3114 40.3787 21.1132C40.3787 22.5569 39.8902 23.5996 38.9132 24.2412C37.9365 24.8829 36.6882 25.2036 35.1685 25.2036H26.5395ZM18.0187 11.2966V45.6552H36.7967C38.5335 45.6552 40.225 45.4628 41.8712 45.0777C43.5175 44.6927 44.9827 44.0993 46.2672 43.2973C47.5515 42.4953 48.5737 41.4605 49.3335 40.1935C50.0935 38.9262 50.4732 37.4264 50.4732 35.6941C50.4732 33.5446 49.8852 31.708 48.7095 30.1843C47.5335 28.6603 45.7515 27.5937 43.3635 26.9841C45.1002 26.2464 46.412 25.2998 47.2985 24.1449C48.1847 22.9901 48.628 21.5466 48.628 19.814C48.628 18.21 48.3295 16.8627 47.7325 15.7719C47.1355 14.6813 46.2942 13.807 45.2087 13.1493C44.1235 12.4916 42.821 12.0184 41.3012 11.7298C39.7817 11.4409 38.0992 11.2966 36.254 11.2966H18.0187ZM26.5395 39.7843V30.3525H35.8197C37.665 30.3525 39.1485 30.7294 40.2702 31.4835C41.3917 32.2374 41.9527 33.4965 41.9527 35.2609C41.9527 36.1593 41.7807 36.8971 41.437 37.4745C41.0932 38.052 40.632 38.5093 40.053 38.846C39.4742 39.1829 38.8047 39.4234 38.045 39.5679C37.285 39.712 36.4892 39.7843 35.657 39.7843H26.5395Z" fill="white"/>
</g>
<defs>
<clipPath id="clip0_14_45">
<rect width="64" height="56.747" fill="white" transform="translate(0 0.102417)"/>
</clipPath>
</defs>
</svg>
