<svg width="94" height="76" viewBox="0 0 94 76" fill="none" xmlns="http://www.w3.org/2000/svg">
<path d="M70.7726 65.917L46.9997 71.0694L23.2263 65.917L17.7404 18.0786H76.2592L70.7726 65.917Z" fill="#2062AF"/>
<path d="M46.9994 21.9534V66.96L47.0532 66.9718L66.2916 62.8019L70.7323 21.9534H46.9994Z" fill="#3C9CD7"/>
<path d="M33.5075 11.0501V8.20276H38.6686V5.0871H29.6367V13.8932H38.6686V11.0501H33.5075ZM47.9528 8.20276H51.561V5.0871H42.5283V8.20276C43.7368 9.17548 44.367 9.64104 46.1148 11.0479C45.0931 11.0479 42.5283 11.0508 42.5283 11.0507V13.8932H51.561V11.0501L47.9528 8.20276ZM60.755 8.20276H64.3631V5.0871H55.3301V8.20276C56.5385 9.17548 57.1691 9.64104 58.9169 11.0479C57.8955 11.0479 55.3301 11.0508 55.3301 11.0507V13.8932H64.3633V11.0501L60.755 8.20276Z" fill="black"/>
<path d="M46.9784 33.915L29.9633 39.6189L30.5275 45.2662L46.9784 39.6046L64.4778 33.5823L65.2033 27.8053L46.9784 33.915Z" fill="white"/>
<path d="M29.9631 39.6189L30.5273 45.2662L46.9782 39.6045V33.9149L29.9631 39.6189Z" fill="url(#paint0_linear_14_48)"/>
<path d="M65.2034 27.8054L46.9784 33.9149V39.6046L64.4778 33.5823L65.2034 27.8054Z" fill="url(#paint1_linear_14_48)"/>
<path d="M29.9892 39.6189L30.5537 45.2662L55.7953 45.331L55.2307 52.8607L46.9247 54.7429L38.9403 53.1201L38.4565 48.4465H31.0375L32.0052 57.4691L47.0054 61.0391L61.9242 57.5339L63.8597 39.6189H29.9892Z" fill="url(#paint2_linear_14_48)"/>
<path opacity="0.05" d="M46.9784 39.6189H29.9633L30.5275 45.2662L46.9784 45.3085V39.6189ZM46.9784 54.7249L46.8977 54.743L38.9143 53.1203L38.4305 48.4467H31.0117L31.9793 57.4693L46.9784 61.0393V54.7249Z" fill="black"/>
<path d="M28.4309 27.8054H65.2034L64.4778 33.5824H29.3179L28.4309 27.8054Z" fill="url(#paint3_linear_14_48)"/>
<path opacity="0.05" d="M46.9784 27.8054H28.4309L29.3179 33.5824H46.9784V27.8054Z" fill="black"/>
<defs>
<linearGradient id="paint0_linear_14_48" x1="38.4706" y1="45.2663" x2="38.4706" y2="33.9151" gradientUnits="userSpaceOnUse">
<stop offset="0.387" stop-color="#D1D3D4" stop-opacity="0"/>
<stop offset="1" stop-color="#D1D3D4"/>
</linearGradient>
<linearGradient id="paint1_linear_14_48" x1="56.0907" y1="39.6047" x2="56.0907" y2="27.8056" gradientUnits="userSpaceOnUse">
<stop offset="0.387" stop-color="#D1D3D4" stop-opacity="0"/>
<stop offset="1" stop-color="#D1D3D4"/>
</linearGradient>
<linearGradient id="paint2_linear_14_48" x1="29.9892" y1="50.3291" x2="63.8596" y2="50.3291" gradientUnits="userSpaceOnUse">
<stop stop-color="#E8E7E5"/>
<stop offset="1" stop-color="white"/>
</linearGradient>
<linearGradient id="paint3_linear_14_48" x1="28.4309" y1="30.6939" x2="65.2032" y2="30.6939" gradientUnits="userSpaceOnUse">
<stop stop-color="#E8E7E5"/>
<stop offset="1" stop-color="white"/>
</linearGradient>
</defs>
</svg>
