<svg width="65" height="66" viewBox="0 0 65 66" fill="none" xmlns="http://www.w3.org/2000/svg">
<g clip-path="url(#clip0_13_23)">
<path d="M32.499 0.931641C14.5527 0.931641 0 15.5388 0 33.5627C0 47.977 9.31073 60.2074 22.23 64.5216C23.854 64.8224 24.4463 63.8149 24.4463 62.949C24.4463 62.1753 24.418 60.1236 24.4023 57.3999C15.3599 59.374 13.4529 53.026 13.4529 53.026C11.9768 49.256 9.84645 48.2548 9.84645 48.2548C6.89419 46.2293 10.0687 46.2681 10.0687 46.2681C13.3292 46.4977 15.0454 49.6324 15.0454 49.6324C17.9473 54.6185 22.6546 53.177 24.506 52.3414C24.7985 50.2341 25.6404 48.7947 26.5682 47.9801C19.3532 47.155 11.7671 44.3579 11.7671 31.8559C11.7671 28.2945 13.0325 25.3811 15.1115 23.0977C14.7749 22.2726 13.6605 18.9566 15.4281 14.4653C15.4281 14.4653 18.1581 13.5888 24.3656 17.8096C26.9582 17.0862 29.7385 16.7245 32.5031 16.7099C35.2615 16.7245 38.0439 17.0852 40.6407 17.8096C46.843 13.5888 49.5688 14.4653 49.5688 14.4653C51.3406 18.9566 50.2261 22.2726 49.8906 23.0977C51.9748 25.3811 53.2329 28.2935 53.2329 31.8559C53.2329 44.3894 45.6342 47.1466 38.394 47.956C39.5609 48.9635 40.5998 50.9533 40.5998 53.9989C40.5998 58.3623 40.561 61.8786 40.561 62.949C40.561 63.8233 41.1471 64.8392 42.7952 64.5174C55.6977 60.1949 65 47.9728 65 33.5627C65 15.5388 50.4473 0.931641 32.499 0.931641Z" fill="#3E77BF"/>
<path d="M32.499 0.931641C14.5527 0.931641 0 15.5388 0 33.5627C0 47.977 9.31073 60.2074 22.23 64.5216C23.854 64.8224 24.4463 63.8149 24.4463 62.949C24.4463 62.1753 24.418 60.1236 24.4023 57.3999C15.3599 59.374 13.4529 53.026 13.4529 53.026C11.9768 49.256 9.84645 48.2548 9.84645 48.2548C6.89419 46.2293 10.0687 46.2681 10.0687 46.2681C13.3292 46.4977 15.0454 49.6324 15.0454 49.6324C17.9473 54.6185 22.6546 53.177 24.506 52.3414C24.7985 50.2341 25.6404 48.7947 26.5682 47.9801C19.3532 47.155 11.7671 44.3579 11.7671 31.8559C11.7671 28.2945 13.0325 25.3811 15.1115 23.0977C14.7749 22.2726 13.6605 18.9566 15.4281 14.4653C15.4281 14.4653 18.1581 13.5888 24.3656 17.8096C26.9582 17.0862 29.7385 16.7245 32.5031 16.7099C35.2615 16.7245 38.0439 17.0852 40.6407 17.8096C46.843 13.5888 49.5688 14.4653 49.5688 14.4653C51.3406 18.9566 50.2261 22.2726 49.8906 23.0977C51.9748 25.3811 53.2329 28.2935 53.2329 31.8559C53.2329 44.3894 45.6342 47.1466 38.394 47.956C39.5609 48.9635 40.5998 50.9533 40.5998 53.9989C40.5998 58.3623 40.561 61.8786 40.561 62.949C40.561 63.8233 41.1471 64.8392 42.7952 64.5174C55.6977 60.1949 65 47.9728 65 33.5627C65 15.5388 50.4473 0.931641 32.499 0.931641Z" fill="#3E77BF"/>
<path d="M49.6013 14.5562C51.3217 18.9992 50.224 22.2786 49.8896 23.0974C51.9738 25.3808 53.2318 28.2932 53.2318 31.8556C53.2318 44.3891 45.6331 47.1463 38.393 47.9557C39.5598 48.9632 40.5988 50.953 40.5988 53.9986C40.5988 58.362 40.56 61.8783 40.56 62.9487C40.56 63.823 41.146 64.8389 42.7941 64.517C55.6977 60.1945 65 47.9725 65 33.5624C65 29.6886 64.3248 25.9752 63.0909 22.5281C58.6101 17.8103 53.6229 14.6683 49.6013 14.5562Z" fill="#114C82"/>
<path d="M25.2892 49.7025C25.654 48.9665 26.0996 48.3941 26.5682 47.98C22.6137 47.5271 18.5523 46.4713 15.6849 43.5579C17.8907 47.2293 21.4825 48.8994 25.2892 49.7025Z" fill="#114C82"/>
<path d="M1.6921 35.7622C1.6921 17.7383 16.2448 3.13116 34.1911 3.13116C44.156 3.13116 53.0694 7.63817 59.0294 14.7274C53.1427 6.38221 43.4577 0.931641 32.499 0.931641C14.5527 0.931641 0 15.5388 0 33.5627C0 41.5986 2.89879 48.9509 7.69936 54.6342C3.92411 49.3053 1.6921 42.799 1.6921 35.7622Z" fill="#6CA9EA"/>
<path d="M42.2909 56.1995C42.2909 53.1549 41.2519 51.162 40.0851 50.1545C47.3252 49.3472 54.925 46.5878 54.925 34.0554C54.925 30.493 53.6669 27.5816 51.5806 25.2982C51.9182 24.4732 53.0348 21.1561 51.2588 16.6658C51.2588 16.6658 50.9212 16.562 50.224 16.6019C50.9852 19.9882 50.1695 22.4099 49.8896 23.0977C51.9738 25.3811 53.2319 28.2935 53.2319 31.8559C53.2319 44.3894 45.6331 47.1466 38.393 47.956C39.5598 48.9635 40.5988 50.9533 40.5988 53.9989C40.5988 58.3623 40.56 61.8786 40.56 62.949C40.56 63.7185 41.0181 64.596 42.2531 64.575C42.2615 63.0999 42.2909 59.9684 42.2909 56.1995Z" fill="#083E66"/>
<path d="M15.3935 55.8188C16.076 57.2237 18.3698 60.589 24.4211 59.8803C24.4127 59.1401 24.4065 58.3109 24.4023 57.3998C19.7338 58.4188 16.9776 57.2174 15.3935 55.8188Z" fill="#114C82"/>
<path d="M16.5603 51.5453C16.3517 51.2308 15.9606 50.6972 15.3935 50.1636C15.7615 50.7098 16.1525 51.1679 16.5603 51.5453Z" fill="#6CA9EA"/>
</g>
<defs>
<clipPath id="clip0_13_23">
<rect width="65" height="65" fill="white" transform="translate(0 0.254883)"/>
</clipPath>
</defs>
</svg>
