<svg width="77" height="68" viewBox="0 0 77 68" fill="none" xmlns="http://www.w3.org/2000/svg">
<g clip-path="url(#clip0_14_35)">
<path d="M65.707 13.9225L60.7498 62.3528L38.4667 67.7401L16.2451 62.3602L11.293 13.9225H65.707Z" fill="#E44D26"/>
<path d="M38.5 63.6221L56.5059 59.2688L60.7419 17.8829H38.5V63.6221Z" fill="#F16529"/>
<path d="M28.8633 29.7644H38.5V23.8237H21.4186L21.5815 25.4175L23.2559 41.7885H38.5V35.8478H29.4859L28.8633 29.7644ZM30.3986 44.7589H23.5603L24.5146 54.0867L38.4686 57.4647L38.5 57.4573V51.2764L38.4701 51.2833L30.8836 49.4969L30.3986 44.7589Z" fill="#EBEBEB"/>
<path d="M16.3556 0.759094H19.8174V3.74181H22.9842V0.759094H26.4462V9.7915H22.9844V6.76693H19.8176V9.7915H16.3558V0.759094H16.3556ZM30.9984 3.75446H27.9512V0.759094H37.5099V3.75446H34.4608V9.7915H30.999V3.75446H30.9988H30.9984ZM39.0269 0.759094H42.6365L44.8569 3.93284L47.0752 0.759094H50.6863V9.7915H47.2386V5.31454L44.8569 8.52605H44.7972L42.414 5.31454V9.7915H39.0269V0.759094ZM52.4091 0.759094H55.8719V6.80599H60.7402V9.7915H52.4089V0.759094H52.4091Z" fill="black"/>
<path d="M38.4765 41.7885H46.8648L46.0739 49.4931L38.4763 51.2815V57.4619L52.4415 54.0867L52.5439 53.083L54.1449 37.443L54.311 35.8478H38.4765V41.7885ZM38.4765 29.7499V29.7644H54.9309L55.0674 28.4292L55.3779 25.4175L55.5407 23.8237H38.4765V29.7501V29.7499Z" fill="white"/>
</g>
<defs>
<clipPath id="clip0_14_35">
<rect width="77" height="67.1506" fill="white" transform="translate(0 0.759094)"/>
</clipPath>
</defs>
</svg>
