<svg width="592" height="471" viewBox="0 0 592 471" fill="none" xmlns="http://www.w3.org/2000/svg">
<g clip-path="url(#clip0_12_0)">
<path d="M510.898 456.005L387.202 456.497C354.385 444.66 327.499 403.548 327.329 341.909C327.296 332.623 327.88 323.349 329.076 314.175L428.708 287.306L505.568 266.579C511.231 272.667 516.509 279.254 521.356 286.285L447.86 332.87L413.189 354.847L452.149 338.713L533.013 305.225C538.055 314.48 542.549 324.15 546.459 334.164L522.06 364.432L549.661 342.742C549.779 343.075 549.896 343.407 550.013 343.741C567.505 393.589 545.802 455.867 510.898 456.005Z" fill="#F2F2F2"/>
<path d="M490.57 252.628C471.864 259.077 448.867 267.225 425.221 275.694C391.033 287.943 355.493 300.869 329.619 310.317L329.635 310.206C330.592 303.576 332.84 297.311 336.198 291.923C355.365 262.008 379.771 241.11 406.934 233.349H406.936C414.574 231.162 422.397 230.041 430.25 230.01C451.861 229.924 472.331 238.061 490.57 252.628Z" fill="#F2F2F2"/>
<path d="M136.478 362.81L115.092 439.698L109.841 458.588C107.313 463.174 104.3 467.346 100.877 471H100.376C73.4306 471 48.9627 469.335 30.9329 466.634L33.4423 443.54L38.8281 394.009L45.714 330.576C49.7847 327.391 54.0472 324.574 58.466 322.148L64.5372 387.939L67.4027 418.975L68.2338 385.743L69.9553 316.765C75.3843 314.657 80.9365 313.037 86.5658 311.919L95.5834 336.6L91.3202 311.09C91.5036 311.064 91.6872 311.031 91.8706 311.006C119.247 307.047 143.99 335.784 136.478 362.81Z" fill="#F2F2F2"/>
<path d="M35.86 339.502C34.8455 355.211 33.7068 374.561 32.5735 394.481C31.6237 411.227 30.6847 428.368 29.8375 444.071C29.4165 451.903 29.0172 459.378 28.6556 466.271C25.5904 465.785 22.7248 465.26 20.0859 464.716C17.4826 459.167 15.2573 453.374 13.432 447.394C8.79098 432.19 7.01552 416.247 8.57512 400.499V400.493C9.20218 394.143 10.3703 387.887 12.0613 381.823C16.672 365.399 24.8949 350.777 35.86 339.502Z" fill="#F2F2F2"/>
<path d="M200.751 455.265C200.751 463.932 156.079 470.955 100.877 471H100.376C73.4307 471 48.9628 469.335 30.9329 466.634C30.1612 466.511 29.4003 466.394 28.6556 466.271C25.5904 465.785 22.7248 465.261 20.0859 464.716C7.4742 462.08 0 458.808 0 455.265C0 452.395 4.88926 449.713 13.432 447.394C17.9435 446.17 23.4695 445.056 29.8374 444.071C31.0085 443.883 32.2101 443.706 33.4423 443.54C51.2023 441.046 74.6611 439.53 100.376 439.53C105.373 439.53 110.289 439.588 115.092 439.698C163.547 440.812 200.751 447.355 200.751 455.265Z" fill="#3F3D56"/>
<path d="M80.9095 317.515L83.4315 341.129C83.4315 341.129 84.4404 349 85.4492 353.239C85.4492 353.239 84.4404 375.642 92.5109 391.385L97.555 402.89L98.5639 419.844L111.174 421.66L108.652 396.229C108.652 396.229 107.643 384.119 108.652 379.275C109.661 374.431 103.608 352.028 103.608 352.028C103.608 352.028 111.679 320.542 105.626 312.671C99.5727 304.799 80.9095 317.515 80.9095 317.515Z" fill="#A0616A"/>
<path d="M103.104 415C103.104 415 97.555 415 97.0506 416.816C96.5462 418.633 88.4756 434.981 88.4756 434.981C88.4756 434.981 81.4139 448.302 91.5021 448.907C101.59 449.513 104.617 444.063 104.617 444.063C104.617 444.063 113.696 426.504 114.201 423.477C114.705 420.449 110.411 413.961 110.411 413.961C110.411 413.961 104.617 418.633 103.104 415Z" fill="#2F2E41"/>
<path d="M110.165 118.305C119.637 118.305 127.315 109.088 127.315 97.7185C127.315 86.3487 119.637 77.1316 110.165 77.1316C100.694 77.1316 93.0154 86.3487 93.0154 97.7185C93.0154 109.088 100.694 118.305 110.165 118.305Z" fill="#A0616A"/>
<path d="M96.294 104.076C96.294 104.076 96.294 126.48 89.7367 128.296C83.1794 130.113 98.8161 150.7 107.391 148.278C115.966 145.856 119.497 129.507 119.497 129.507C119.497 129.507 111.931 118.003 114.957 111.948C117.984 105.893 96.294 104.076 96.294 104.076Z" fill="#A0616A"/>
<path d="M103.608 135.259C101.2 135.169 98.8457 134.388 96.7405 132.983C94.6354 131.577 92.841 129.587 91.507 127.18C91.507 127.18 84.4404 128.599 83.4316 129.204C82.4228 129.81 64.7684 136.47 60.7331 150.397L76.8742 175.222C76.8742 175.222 73.3434 210.341 76.8742 226.084C78.9768 235.514 78.4452 245.511 75.361 254.543C75.361 254.543 73.8478 255.148 76.3698 256.359C78.8919 257.57 136.899 243.644 137.908 240.011C138.917 236.378 136.899 236.378 138.412 234.561C139.926 232.745 143.961 221.846 139.926 218.213C135.89 214.58 133.368 174.617 133.368 174.617L143.961 142.525C143.961 142.525 124.601 123.953 117.636 126.276C117.636 126.276 116.218 135.259 103.608 135.259Z" fill="#D0CDE1"/>
<path d="M110.165 305.404C110.165 305.404 109.156 332.046 111.174 342.34C113.192 352.633 113.192 356.872 113.192 356.872C113.192 356.872 110.165 374.431 111.679 390.78C113.192 407.128 109.913 433.48 109.913 433.48L122.271 438.008L129.837 391.99C129.837 391.99 135.89 363.532 132.359 350.211C132.359 350.211 134.377 309.643 135.89 305.404C137.403 301.166 110.165 305.404 110.165 305.404Z" fill="#A0616A"/>
<path d="M96.6302 101.385C96.8576 99.4539 97.3384 97.3474 98.7101 96.3024C100.134 95.2175 101.972 95.6625 103.655 95.8101C105.337 95.9578 107.398 95.4528 107.951 93.54C108.296 92.3474 107.923 90.9221 108.461 89.8373C109.317 88.1109 111.93 88.308 112.381 86.3732C112.523 85.7604 112.385 85.0764 112.591 84.4902C112.869 83.6993 113.649 83.3841 114.346 83.1904C116.893 82.483 119.51 82.2061 122.121 82.3679C122.376 82.4229 122.64 82.3603 122.859 82.1926C122.974 82.0554 123.056 81.8835 123.097 81.6949C123.687 79.5748 123.062 77.1693 121.886 75.4352C120.638 73.7651 119.099 72.445 117.378 71.5685C113.568 69.3504 109.438 68.0329 105.214 67.6879C101.996 67.4453 98.619 67.8657 95.8785 69.9036C95.0662 70.5204 94.3125 71.2417 93.6306 72.0548C90.6494 75.6435 88.7056 80.2855 88.085 85.2986C87.4831 90.2998 87.9492 95.4026 89.4397 100.128C90.3104 102.973 91.6839 105.911 93.8089 107.664C94.9478 108.604 95.9298 109.471 96.4028 107.876C96.9044 106.184 96.4094 103.26 96.6302 101.385Z" fill="#2F2E41"/>
<path d="M77.883 250.91C77.883 250.91 70.3169 263.02 71.8301 271.497C73.3433 279.974 78.8919 293.9 78.8919 293.9C78.8919 293.9 75.8654 321.147 80.9095 321.147C85.9536 321.147 107.643 319.937 108.148 316.909C108.652 313.882 106.634 283.607 106.634 283.607C106.634 283.607 109.157 310.249 110.67 310.249C112.183 310.249 138.412 313.276 139.421 311.46C140.43 309.643 142.448 263.02 142.448 263.02C142.448 263.02 145.199 241.031 136.509 238.099C127.82 235.167 77.883 250.91 77.883 250.91Z" fill="#2F2E41"/>
<path d="M118.236 433.164C118.236 433.164 109.156 427.109 108.652 431.953C108.148 436.797 102.599 454.357 102.599 454.357C102.599 454.357 97.0506 468.283 109.156 468.889C121.262 469.494 124.289 462.834 124.289 459.806C124.289 456.779 122.932 436.008 122.932 436.008L118.236 433.164Z" fill="#2F2E41"/>
<path d="M149.509 175.222L152.031 201.864C152.031 201.864 155.058 216.396 153.04 222.451C151.023 228.506 143.456 256.359 143.456 256.359C143.456 256.359 141.439 241.221 136.395 239.405L139.421 204.892C139.421 204.892 132.199 183.354 133.793 180.499C135.386 177.644 149.509 175.222 149.509 175.222Z" fill="#A0616A"/>
<path d="M59.7242 177.039L60.7331 201.259C60.7331 201.259 57.2022 222.451 64.2639 244.855L65.2728 254.543L71.8301 269.68C71.8301 269.68 73.3433 255.148 76.3698 255.148C76.3698 255.148 73.3433 245.46 74.3521 240.011C75.361 234.561 73.8477 205.497 73.8477 205.497L76.3698 181.985L59.7242 177.039Z" fill="#A0616A"/>
<path d="M138.412 141.92H143.961C143.961 141.92 157.076 178.25 152.031 178.855C146.987 179.461 130.846 184.305 130.342 181.883C129.837 179.461 138.412 141.92 138.412 141.92Z" fill="#D0CDE1"/>
<path d="M65.2727 144.947L60.733 150.397C60.733 150.397 54.6801 177.644 59.2198 180.672C63.7595 183.699 80.9095 187.332 81.9183 184.91C82.9271 182.488 65.2727 144.947 65.2727 144.947Z" fill="#D0CDE1"/>
<path d="M426.909 18.8705V438.777C426.905 443.779 425.247 448.575 422.3 452.11C419.352 455.646 415.356 457.633 411.189 457.635H269.18C267.115 457.639 265.07 457.154 263.162 456.208C261.254 455.262 259.52 453.874 258.059 452.122C256.599 450.37 255.441 448.29 254.652 446C253.862 443.71 253.457 441.255 253.459 438.777V18.8705C253.459 16.3924 253.866 13.9384 254.656 11.6488C255.446 9.35926 256.604 7.27891 258.063 5.52657C259.523 3.77424 261.256 2.38425 263.164 1.436C265.071 0.487739 267.115 -0.000213526 269.18 8.85336e-07H290.431V3.27141C290.431 7.39213 291.794 11.3443 294.221 14.2587C296.647 17.1731 299.939 18.811 303.372 18.8122H375.599C378.362 18.8193 381.054 17.7561 383.273 15.7805C383.722 15.3887 384.147 14.9602 384.547 14.4978C385.811 13.0487 386.817 11.3064 387.503 9.37664C388.19 7.44685 388.542 5.36977 388.54 3.27141V8.85336e-07H411.189C413.254 -0.000758358 415.298 0.486822 417.206 1.43488C419.113 2.38295 420.847 3.77291 422.307 5.52535C423.766 7.27778 424.924 9.35835 425.714 11.6482C426.504 13.938 426.91 16.3922 426.909 18.8705Z" fill="#3F3D56"/>
<path opacity="0.1" d="M359.949 178.562C382.302 178.562 400.423 174.212 400.423 168.845C400.423 163.478 382.302 159.128 359.949 159.128C337.596 159.128 319.475 163.478 319.475 168.845C319.475 174.212 337.596 178.562 359.949 178.562Z" fill="black"/>
<path opacity="0.1" d="M301.127 228.443C323.48 228.443 341.601 224.092 341.601 218.726C341.601 213.359 323.48 209.009 301.127 209.009C278.773 209.009 260.653 213.359 260.653 218.726C260.653 224.092 278.773 228.443 301.127 228.443Z" fill="black"/>
<path opacity="0.1" d="M334.585 319.783C356.938 319.783 375.059 315.433 375.059 310.066C375.059 304.7 356.938 300.349 334.585 300.349C312.232 300.349 294.111 304.7 294.111 310.066C294.111 315.433 312.232 319.783 334.585 319.783Z" fill="black"/>
<path opacity="0.1" d="M323.253 418.897C345.606 418.897 363.727 414.547 363.727 409.18C363.727 403.814 345.606 399.463 323.253 399.463C300.899 399.463 282.779 403.814 282.779 409.18C282.779 414.547 300.899 418.897 323.253 418.897Z" fill="black"/>
<path d="M463.832 261.386H340.791V275.818V297.795V310.161L351.092 297.795H463.832V261.386Z" fill="#6C63FF"/>
<path d="M170.531 168.426H293.572V182.858V204.835V217.201L283.271 204.835H170.531V168.426Z" fill="#6C63FF"/>
<path d="M437.461 270.226H368.242V276.963H437.461V270.226Z" fill="white"/>
<path d="M437.461 280.332H368.242V287.069H437.461V280.332Z" fill="white"/>
<path d="M260.725 177.914H191.505V184.651H260.725V177.914Z" fill="white"/>
<path d="M260.725 188.02H191.505V194.757H260.725V188.02Z" fill="white"/>
<path d="M592 76.8567H359.949V104.075V145.524V168.845L379.376 145.524H592V76.8567Z" fill="#6C63FF"/>
<path d="M555.843 92.4041H396.106V107.951H555.843V92.4041Z" fill="white"/>
<path d="M555.843 115.725H396.106V131.272H555.843V115.725Z" fill="white"/>
<path d="M308.596 389.752C314.502 402.901 327.038 408.546 327.038 408.546C327.038 408.546 329.998 392.871 324.091 379.722C318.184 366.572 305.648 360.928 305.648 360.928C305.648 360.928 302.689 376.602 308.596 389.752Z" fill="white"/>
<path d="M312.655 385.426C323.319 393.127 327.426 408.424 327.426 408.424C327.426 408.424 314.244 411.235 303.58 403.534C292.916 395.832 288.809 380.535 288.809 380.535C288.809 380.535 301.992 377.724 312.655 385.426Z" fill="#6C63FF"/>
</g>
<defs>
<clipPath id="clip0_12_0">
<rect width="592" height="471" fill="white"/>
</clipPath>
</defs>
</svg>
