<svg width="65" height="66" viewBox="0 0 65 66" fill="none" xmlns="http://www.w3.org/2000/svg">
<path d="M1.25246 48.8516C3.99839 48.5163 6.78285 48.8775 9.52877 48.4263C10.9081 48.2072 12.1715 47.7432 13.422 47.2532C10.3281 45.2681 7.54337 42.9992 4.95242 40.2791C4.02426 39.3122 4.6945 37.6879 6.0482 37.6494C7.15692 37.7008 8.23977 37.6108 9.29673 37.3914C6.60228 33.9753 4.51393 30.3012 2.88967 26.176C2.45146 25.0673 3.74047 23.9459 4.78479 24.2809C5.39062 24.5258 6.00939 24.6935 6.64109 24.8223C4.72038 20.2071 4.32071 15.5534 5.39062 10.4483C5.63559 9.27514 7.18251 8.99164 7.96891 9.7651C14.131 15.8237 21.9174 18.7372 30.2452 20.1295C29.5102 14.4315 33.5584 8.37259 38.8694 6.38718C43.2784 4.74997 49.1955 5.87163 52.1605 9.58425C54.1459 8.33377 56.8916 7.92117 59.0961 7.53444C60.2563 7.34093 61.3779 8.47553 60.6948 9.62278C59.8954 10.9635 59.1349 12.3943 58.297 13.7609C59.9987 13.258 61.752 12.9487 63.5051 12.7296C64.7685 12.5619 65.529 14.5085 64.5624 15.282C62.5125 16.9192 60.4757 18.7884 58.297 20.2839C58.2326 34.7608 54.0042 46.9047 41.0742 55.1422C30.2966 62.0266 10.2634 60.8664 0.891604 51.4943H0.878666C0.46606 51.3911 0.246959 51.0817 0.169613 50.7467C-0.191242 50.2053 0.0663913 49.5351 0.543406 49.2771C0.723974 49.0578 0.956012 48.8901 1.25246 48.8516Z" fill="#3FA9F5"/>
</svg>
