<svg width="443" height="369" viewBox="0 0 443 369" fill="none" xmlns="http://www.w3.org/2000/svg">
<path d="M443 342.869H0V343.936H443V342.869Z" fill="#3F3D56"/>
<path d="M277.947 160.02C277.947 160.02 258.076 176.201 268.012 179.879C277.947 183.556 284.334 166.64 284.334 166.64L277.947 160.02Z" fill="#FFB8B8"/>
<path d="M278.656 154.136L274.399 161.491C274.399 161.491 281.495 161.491 282.914 172.524L288.592 165.169L278.656 154.136Z" fill="#CFCCE0"/>
<path d="M373.04 321.83L373.75 343.894L365.234 349.043L361.686 346.836L362.396 321.83H373.04Z" fill="#FFB8B8"/>
<path d="M322.655 315.946L324.074 339.481L304.204 348.307L305.623 335.804C305.623 335.804 311.301 326.243 309.881 315.946H322.655Z" fill="#FFB8B8"/>
<path d="M353.17 138.691C353.17 138.691 364.525 169.582 366.654 188.705C368.783 207.828 372.331 258.577 372.331 258.577L379.427 324.036L359.557 326.978L351.041 260.783L331.881 195.324L327.623 260.783L324.074 320.359L305.623 321.094L304.204 259.312L296.398 180.614L300.656 143.104L353.17 138.691Z" fill="#2F2E41"/>
<path d="M363.815 345.365C363.815 345.365 364.979 333.013 373.623 339.924L375.17 338.746L382.266 354.927C382.266 354.927 390.782 367.43 375.879 368.901C360.976 370.372 362.396 354.927 362.396 354.927L360.976 348.307L361.686 343.973L363.815 345.365Z" fill="#2F2E41"/>
<path d="M322.655 330.655C324.402 331.69 325.85 333.191 326.848 335.002C327.846 336.813 328.359 338.867 328.332 340.952C328.332 348.307 327.623 349.043 327.623 349.043L316.978 351.985C316.978 351.985 309.881 351.249 305.623 355.662C301.365 360.075 280.076 363.017 280.076 357.133C280.076 351.249 297.817 341.688 297.817 341.688C297.817 341.688 303.086 332.466 306.838 333.4C310.591 334.333 312.01 335.804 312.01 336.539C312.01 337.275 309.881 342.423 309.881 342.423C309.881 342.423 321.945 339.481 322.655 330.655Z" fill="#2F2E41"/>
<path d="M321.236 48.2249C331.034 48.2249 338.977 39.9926 338.977 29.8375C338.977 19.6825 331.034 11.4501 321.236 11.4501C311.437 11.4501 303.494 19.6825 303.494 29.8375C303.494 39.9926 311.437 48.2249 321.236 48.2249Z" fill="#FFB8B8"/>
<path d="M334.364 34.6183L342.171 53.0057L320.881 84.632C320.881 84.632 319.462 50.0637 315.204 44.1797C310.946 38.2958 334.364 34.6183 334.364 34.6183Z" fill="#FFB8B8"/>
<path d="M324.429 72.8642L327.978 63.3028L330.816 64.0381L334.364 61.096L339.332 44.9153L346.429 50.0637L355.654 146.414L298.172 147.885L305.978 80.9545L313.075 61.8318L318.197 54.8131L321.59 65.5091L324.429 72.8642Z" fill="#CFCCE0"/>
<path d="M340.751 114.052L342.923 47.5204C342.923 47.5204 347.138 47.8573 348.557 50.0637C349.977 52.2702 373.395 56.6832 373.395 56.6832L369.137 125.084C369.137 125.084 386.879 179.511 380.492 182.453C374.105 185.395 362.751 184.66 362.751 184.66L340.751 114.052Z" fill="#575A89"/>
<path d="M306.333 105.594L313.861 60.754L297.107 72.4963L301.365 104.858L297.817 126.923C297.817 126.923 284.334 187.969 288.592 190.176C292.85 192.382 297.817 190.176 297.817 190.176L306.333 128.394V105.594Z" fill="#575A89"/>
<path d="M302.075 71.0253L297.107 72.4963L294.978 101.916L291.43 127.659L274.399 159.285C274.399 159.285 282.914 153.401 286.463 170.317L305.22 136.472L302.075 71.0253Z" fill="#575A89"/>
<path d="M357.428 154.136C357.428 154.136 337.558 170.317 347.493 173.995C357.428 177.672 363.815 160.756 363.815 160.756L357.428 154.136Z" fill="#FFB8B8"/>
<path d="M369.492 162.227L363.106 170.317L354.59 154.872L358.138 148.252L369.492 162.227Z" fill="#CFCCE0"/>
<path d="M368.073 59.2574L373.75 56.3154C373.75 56.3154 378.008 62.1994 378.718 67.3479C379.427 72.4963 382.976 79.1158 382.976 82.7933C382.976 86.4708 392.911 121.039 392.911 121.039L370.202 168.846C370.202 168.846 365.234 151.194 354.59 149.723L372.331 123.981L362.396 105.594L368.073 59.2574Z" fill="#575A89"/>
<path d="M336.088 12.3183L339.433 10.9302C339.433 10.9302 332.438 2.94839 322.706 3.64248L325.443 0.519149C325.443 0.519149 318.752 -2.2571 312.669 5.03058C309.472 8.86154 305.772 13.3647 303.466 18.4374H299.883L301.378 21.8498L296.144 25.2623L301.516 24.6494C301.196 26.5181 301.147 28.4258 301.37 30.3096C301.601 32.1939 302.529 33.9117 303.958 35.1005C303.958 35.1005 308.107 26.1996 308.107 24.8115V28.2818C308.107 28.2818 311.453 25.1585 311.453 23.0763L313.277 25.5055L314.19 21.6881L325.443 25.5055L323.618 22.3823L330.613 23.4234L327.876 19.6059C327.876 19.6059 335.784 24.1174 336.088 27.9348C336.392 31.7521 338.707 35.3693 338.707 35.3693C338.707 35.3693 344.908 17.5238 336.088 12.3183Z" fill="#2F2E41"/>
<path d="M335.784 29.4698C336.881 29.4698 337.771 28.3172 337.771 26.8955C337.771 25.4738 336.881 24.3213 335.784 24.3213C334.686 24.3213 333.797 25.4738 333.797 26.8955C333.797 28.3172 334.686 29.4698 335.784 29.4698Z" fill="#FFB8B8"/>
<path d="M82.1167 151.59H20.856V133.798H52.833L82.1167 151.59Z" fill="#536DFE"/>
<path d="M20.6877 149.148V201.127H219.617V149.148H20.6877ZM98.2737 192.406H33.6468V185.08H98.2737V192.406ZM206.658 178.8H33.6468V171.474H206.658V178.8ZM206.658 165.195H33.6468V157.869H206.658V165.195Z" fill="#3F3D56"/>
<path d="M82.1167 67.5157H20.856V49.7239H52.833L82.1167 67.5157Z" fill="#536DFE"/>
<path d="M20.6877 66.1201V118.1H219.617V66.1201H20.6877ZM98.2737 109.378H33.6468V102.052H98.2737V109.378ZM135.636 95.7728H33.6468V88.4468H135.636L135.636 95.7728ZM206.658 82.1675H33.6468V74.8415H206.658V82.1675Z" fill="#3F3D56"/>
<path d="M82.1167 233.919H20.856V216.128H52.833L82.1167 233.919Z" fill="#536DFE"/>
<path d="M20.6877 230.431V282.41H219.617V230.431H20.6877ZM135.636 273.689H33.6468V266.363H135.636V273.689ZM135.636 260.084H33.6468V252.758H135.636V260.084ZM206.658 246.478H33.6468V239.152H206.658V246.478Z" fill="#3F3D56"/>
<path d="M275.998 106.588H247.723V77.2834H266.91V77.9811H248.397V105.89H275.324V91.9355H275.998V106.588Z" fill="#3F3D56"/>
<path d="M261.715 98.9439C261.061 96.9443 252.868 90.1474 257.889 89.0049L262.006 94.6949L280.936 75.0759L282.84 77.0491L261.715 98.9439Z" fill="#536DFE"/>
<path d="M275.998 189.615H247.723V160.311H266.91V161.009H248.397V188.917H275.324V174.963H275.998V189.615Z" fill="#3F3D56"/>
<path d="M261.715 181.971C261.061 179.972 252.868 173.175 257.889 172.032L262.006 177.722L280.936 158.103L282.84 160.077L261.715 181.971Z" fill="#536DFE"/>
<path d="M275.998 272.293H247.723V242.99H266.91V243.688H248.397V271.596H275.324V257.641H275.998V272.293Z" fill="#3F3D56"/>
<path d="M261.715 264.65C261.061 262.65 252.868 255.853 257.889 254.711L262.006 260.401L280.936 240.782L282.84 242.755L261.715 264.65Z" fill="#536DFE"/>
</svg>
